<svg xmlns="http://www.w3.org/2000/svg" viewBox="0 0 317.95 68.55"><defs><style>.cls-1{fill:#e21a34;}.cls-2{fill:#f8ce03;}.cls-3{fill:#ea5922;}.cls-4{fill:#ef801f;}.cls-5{fill:#3c2372;}.cls-6{fill:#0088ce;}.cls-7{fill:#0068a7;}.cls-8{fill:#66589f;}.cls-11,.cls-9{fill:#15489d;}.cls-10{fill:#e91a34;}.cls-11{font-size:16.64px;font-family:Ogonek;}</style></defs><g id="Layer_2" data-name="Layer 2"><g id="Layer_1-2" data-name="Layer 1"><path class="cls-1" d="M30.47,27.84q-2.87,4-5.75,7.93c-.2.27-.33.62-.69.79l-6.4-9.12a.23.23,0,0,1-.14-.22,8.89,8.89,0,0,1,1.23-1.93c1.41-2.11,2.9-4.15,4.31-6.25.23-.34.41-.74.87-.86s.67.32.88.63c1.91,2.88,3.86,5.73,5.73,8.63A.36.36,0,0,1,30.47,27.84Z"/><path class="cls-2" d="M17.54,9.27C19.65,6.23,21.75,3.18,24,0c2.27,3.16,4.45,6.21,6.63,9.26a1.8,1.8,0,0,1-.46,1q-2.64,3.62-5.24,7.24c-.22.32-.41.76-.95.66a1.3,1.3,0,0,1-.63-.57Q20.62,14,18,10.29A1.4,1.4,0,0,1,17.54,9.27Z"/><path class="cls-3" d="M23.92,18.12c.95-.55,1.33-1.57,1.95-2.39,1.6-2.13,3.15-4.31,4.71-6.47Q33.79,14,37,18.85a1.56,1.56,0,0,1-.4.86c-1.83,2.47-3.65,4.95-5.51,7.4-.15.21-.25.55-.64.45-1.68-2.18-3.05-4.57-4.64-6.8-.6-.84-.93-1.9-1.89-2.46C23.86,18.23,23.86,18.17,23.92,18.12Z"/><path class="cls-4" d="M23.92,18.12c0,.06,0,.12,0,.18-1.54,2.18-3.06,4.36-4.6,6.53-.57.8-1.16,1.59-1.73,2.38-.36.06-.51-.22-.67-.44-1.73-2.41-3.48-4.8-5.2-7.2a1.6,1.6,0,0,1-.43-.94l6.26-9.36Z"/><path class="cls-5" d="M42.19,26.4l5.47,7.77a.62.62,0,0,1,0,.84c-2.05,2.78-4.08,5.58-6.2,8.49l-5.62-8.08c-.27-.41,0-.72.2-1,1.77-2.41,3.48-4.86,5.23-7.28C41.51,26.8,41.66,26.34,42.19,26.4Z"/><path class="cls-6" d="M11.28,18.63,17,26.47c.18.25.4.49.6.74l.05.23L12,35.6c-.36-.05-.52-.35-.71-.6-1.82-2.44-3.57-4.93-5.39-7.38-.19-.25-.4-.51-.27-.87C7.39,24,9.37,21.32,11.28,18.63Z"/><path class="cls-7" d="M5.61,26.75l5.7,7.92.67.93L6.77,43.31c-.27.4-.43.35-.68,0Q3.15,39.26.2,35.24a.62.62,0,0,1-.06-.84C2,31.86,3.79,29.3,5.61,26.75Z"/><path class="cls-8" d="M42.19,26.4c-1.43,1.63-2.55,3.49-3.85,5.22-.75,1-1.45,2-2.19,3a1.11,1.11,0,0,0-.3.78c-1.7-2.12-3.1-4.46-4.68-6.66l-.7-.92,0-.28,6.18-8.28a5,5,0,0,1,.37-.43C38.8,21.31,40.51,23.84,42.19,26.4Z"/><path class="cls-9" d="M60.86,32.66l-4.46,11h-4l17-41.89h2.74l17,41.89H85l-4.46-11Zm18.31-3.49L70.71,8.33,62.26,29.17Z"/><path class="cls-9" d="M113.11,35.15l3.4,1.65a12.21,12.21,0,0,1-1.72,2.74,11.3,11.3,0,0,1-17.38,0Q94,35.5,94,27.67t3.39-11.89a11.35,11.35,0,0,1,17.38,0,13.07,13.07,0,0,1,1.72,2.79l-3.4,1.64a7.58,7.58,0,0,0-1-1.59,7.76,7.76,0,0,0-12.08,0q-2.32,2.89-2.33,9.07c0,4.13.78,7.15,2.33,9.08a7.76,7.76,0,0,0,12.08,0A7.66,7.66,0,0,0,113.11,35.15Z"/><path class="cls-9" d="M126.68,29.67c.16,3.12.88,5.48,2.19,7.08a7.76,7.76,0,0,0,12.08,0,3.74,3.74,0,0,1,.32-.4l3.3,1.9a12.85,12.85,0,0,1-1,1.29,11.29,11.29,0,0,1-17.37,0q-3.39-4.07-3.4-11.9t3.4-11.89a11.32,11.32,0,0,1,17.37,0Q147,19.85,147,27.67c0,.7,0,1.37-.05,2Zm16.54-3.59c-.21-3.39-1-6-2.46-7.73a7.81,7.81,0,0,0-11.71,0q-2.13,2.64-2.37,7.73Z"/><path class="cls-9" d="M158,1.74V43.63H154.3V1.74Z"/><path class="cls-9" d="M188.13,15.78q3.39,4.06,3.39,11.89t-3.39,11.9a11.33,11.33,0,0,1-17.38,0q-3.39-4.07-3.39-11.9t3.39-11.89a11.33,11.33,0,0,1,17.38,0Zm-8.69-.07a7.38,7.38,0,0,0-6,2.89q-2.33,2.89-2.32,9.07c0,4.13.77,7.15,2.32,9.08a7.76,7.76,0,0,0,12.08,0c1.55-1.93,2.32-4.95,2.32-9.08s-.77-7.14-2.32-9.07A7.38,7.38,0,0,0,179.44,15.71Z"/><path class="cls-9" d="M203.53,12.71h5.58V16.2h-5.58V35.65a5.55,5.55,0,0,0,1.09,3.82,3.48,3.48,0,0,0,2.63,1.17v3a7.14,7.14,0,0,1-5.48-2.09,8.32,8.32,0,0,1-2-5.89V16.2H198V12.71h1.86v-5l3.71-1.95Z"/><path class="cls-10" d="M220.47,43.63v-40h3.72V40.3h17.66v3.33Z"/><path class="cls-10" d="M250.26,9.57V43.63h-3.72V3.16h4.74l13.85,28.72,14-28.72h4.55V43.63H280V9.76L266.7,37.37h-3Z"/><path class="cls-10" d="M294.81,21.29A9.5,9.5,0,0,1,291,13.71a9.36,9.36,0,0,1,3.35-7.36q3.34-2.92,9.2-2.92a16,16,0,0,1,9.66,3.13,13.74,13.74,0,0,1,2.93,3.27l-3.53,1.31a15.14,15.14,0,0,0-2-1.91,12.83,12.83,0,0,0-7.06-2.06Q299.23,7.17,297,9a5.8,5.8,0,0,0-2.25,4.72,6,6,0,0,0,2.74,5,16.61,16.61,0,0,0,6.74,2.48c4.61.71,7.84,1.82,9.66,3.32a10.15,10.15,0,0,1,.24,16.1q-3.87,3.06-10.09,3.06a15.1,15.1,0,0,1-9.85-3.32,10.78,10.78,0,0,1-3.2-3.92l3.57-1.08a7.52,7.52,0,0,0,2.28,2.38,11.74,11.74,0,0,0,7.2,2.2,12.64,12.64,0,0,0,7.46-2,6.51,6.51,0,0,0-.21-10.8c-1.73-1.18-4.6-2-8.59-2.57A17.71,17.71,0,0,1,294.81,21.29Z"/><text class="cls-11" transform="translate(52.67 63.62)">Simplifying Learning Solutions</text></g></g></svg>