<svg version="1.2" xmlns="http://www.w3.org/2000/svg" viewBox="0 0 795 175" width="250" height="55">
	<title>Acelot LMS</title>
	<style>
		tspan { white-space:pre } 
		.s0 { fill: #12489c } 
		.s1 { fill: #0068ad } 
		.s2 { fill: #008fd3 } 
		.s3 { fill: #f4831f } 
		.s4 { fill: #e81a33 } 
		.s5 { fill: #f05a22 } 
		.s6 { fill: #6557a5 } 
		.s7 { fill: #3c2371 } 
		.s8 { fill: #ffd303 } 
		.t9 { font-size: 60px;fill: #ff2d2a;font-family: "Ogonek" } 
		.t10 { font-size: 21px;fill: #0840a0;font-family: "Ogonek" } 
	</style>
	<g id="Layer 1">
		<path id="&lt;Compound Path&gt;" fill-rule="evenodd" class="s0" d="m153.8 80.1l-11.8 27.1h-10.7l44.9-103.5h7.3l45.2 103.5h-10.8l-11.8-27.1zm48.5-8.6l-22.4-51.5-22.5 51.5z"/>
		<path id="&lt;Compound Path&gt;" class="s0" d="m286.8 87.5l9 4.1q-2 3.9-4.6 6.7-8.9 10.1-23 10.1-14 0-23-10-9-10-9-29.4 0-19.3 9-29.4 9-10 23-10 14.1 0 23 10 2.6 2.9 4.6 6.9l-9 4q-1.1-2.2-2.6-3.9-6.1-7.1-16-7.1-9.8 0-16 7.1-6.2 7.1-6.2 22.4 0 15.3 6.2 22.4 6.2 7.2 16 7.2 9.9 0 16-7.2 1.5-1.7 2.6-3.9z"/>
		<path id="&lt;Compound Path&gt;" fill-rule="evenodd" class="s0" d="m317.5 73.9q0.6 11.6 5.7 17.5 6.2 7.2 16.1 7.2 9.8 0 16-7.2 0.3-0.5 0.8-0.9l8.8 4.6q-1.2 1.8-2.6 3.2-9 10.1-23 10.1-14.1 0-23.1-10-9-10-9-29.4 0-19.3 9-29.4 9-10 23.1-10 14 0 23 10 9 10.1 9 29.4 0 2.6-0.1 4.9zm43.8-8.8q-0.8-12.6-6.5-19.1-5.7-6.6-15.5-6.5-9.9-0.1-15.5 6.5-5.7 6.5-6.3 19.1z"/>
		<path id="&lt;Compound Path&gt;" class="s0" d="m397.9 3.7v103.5h-9.9v-103.5z"/>
		<path id="&lt;Compound Path&gt;" fill-rule="evenodd" class="s0" d="m472.4 39.6q9 10.1 9 29.4 0 19.4-9 29.4-9 10-23.1 10-14 0-23-10-9-10-9-29.4 0-19.3 9-29.4 9-10 23-10 14.1 0 23.1 10zm-23.1-0.1q-9.8 0-16 7.1-6.1 7.1-6.1 22.4 0 15.3 6.1 22.4 6.2 7.2 16 7.2 9.9 0 16.1-7.2 6.1-7.1 6.1-22.4 0-15.3-6.1-22.4-6.2-7.1-16.1-7.1z"/>
		<path id="&lt;Compound Path&gt;" class="s0" d="m510.5 30.8h14.8v8.7h-14.8v48q0 6.5 2.9 9.4 2.9 2.9 7 2.9v7.4q-9.4 0-14.5-5.2-5.2-5.1-5.2-14.5v-48h-4.9v-8.7h4.9v-12.3l9.8-4.8z"/>
		<g id="&lt;Group&gt;">
			<path id="&lt;Path&gt;" class="s1" d="m18.7 110.7l-16.2-22.3 14.3-20.3 15.9 22.3z"/>
			<path id="&lt;Path&gt;" class="s2" d="m32.7 90.4l-16.1-22.1 14.3-20.3 16 21.7z"/>
			<path id="&lt;Path&gt;" class="s3" d="m46.8 70l-15.9-22 15.5-23.3 16.2 22.2z"/>
			<path id="&lt;Path&gt;" class="s4" d="m62.7 93l-16-23.2 16-23.3 16.1 24z"/>
			<path id="&lt;Path&gt;" class="s5" d="m78.9 71l-16.1-24.2 16.1-22.2 16.1 24z"/>
			<path id="&lt;Path&gt;" class="s6" d="m91.8 89.8l-13.2-19.2 16.4-22 12.9 18.7z"/>
			<path id="&lt;Path&gt;" class="s7" d="m106.1 110l-14.2-20.4 16-22.3 14.3 20.7z"/>
			<path id="&lt;Path&gt;" class="s8" d="m62.7 47.1l-16.3-22.4 16-22.8 16.5 22.7z"/>
		</g>
		<g id="&lt;Group&gt;">
			<path id="&lt;Compound Path&gt;" class="s4" d="m553.8 97v-93.9h8.9v86.1h42.5v7.8z"/>
			<path id="&lt;Compound Path&gt;" class="s4" d="m625.4 18v79h-9v-93.9h11.4l33.3 66.6 33.7-66.6h10.9v93.9h-8.9v-78.6l-31.9 64.1h-7.1z"/>
			<path id="&lt;Compound Path&gt;" class="s4" d="m737.3 44.7q-9.1-7.5-9.1-18.1 0-10.6 8-17.6 8.1-7 22.1-7 13 0 23.3 7.5 4.3 3.6 7 7.8l-8.5 3.2q-2.1-2.5-4.8-4.6-7.7-4.9-17-4.9-10.3 0-15.8 4.3-5.4 4.4-5.4 11.3 0 6.9 6.6 11.8 5.6 4.1 16.2 6 16.7 2.5 23.2 7.9 9.9 7.9 9.9 19 0 12.2-9.3 19.5-9.3 7.3-24.2 7.3-13.9 0-23.7-7.9-5.4-4.3-7.7-9.4l8.6-2.6q1.8 3.1 5.4 5.7 7.2 5.3 17.4 5.3 11.2 0 17.9-4.7 6.6-4.7 6.6-13.2 0-7.4-7.1-12.6-6.3-4.3-20.7-6.2-12.4-2.4-18.9-7.8z"/>
		</g>
		<g id="&lt;Group&gt;">
			<path id="&lt;Compound Path&gt;" class="s0" d="m139.4 143.2q-3.1-2.6-3.1-6.3 0-3.6 2.7-6 2.8-2.4 7.7-2.4 4.4 0 8 2.6 1.5 1.2 2.4 2.7l-2.9 1q-0.8-0.8-1.7-1.5-2.6-1.7-5.8-1.7-3.6 0-5.5 1.5-1.8 1.5-1.8 3.8 0 2.4 2.2 4.1 2 1.4 5.6 2.1 5.7 0.9 8 2.7 3.4 2.7 3.4 6.6 0 4.1-3.2 6.7-3.2 2.5-8.3 2.5-4.8 0-8.2-2.7-1.9-1.5-2.7-3.3l3-0.9q0.6 1.1 1.9 2 2.4 1.8 6 1.8 3.8 0 6.1-1.6 2.3-1.6 2.3-4.5 0-2.6-2.4-4.4-2.2-1.5-7.2-2.1-4.2-0.9-6.5-2.7z"/>
			<path id="&lt;Compound Path&gt;" class="s0" d="m166.3 132.7v-3.1h3.1v3.1zm3 4.6v23.9h-3v-23.9z"/>
			<path id="&lt;Compound Path&gt;" class="s0" d="m181.7 146.6v14.6h-3.1v-23.9h2.7l0.3 2.8q2.4-3.2 6.2-3.2 3.8 0 6.6 2.7 0.9 1 1.6 2.2 0.4-0.8 1.1-1.8 2.3-3.1 6.1-3.1 3.9 0 6.6 2.8 2.7 2.7 2.7 7.3v14.2h-3.1v-14.2q0-3.4-1.8-5.2-1.8-1.8-4.4-1.8-2.5 0-4.3 1.8-1.8 1.8-1.8 5.2v14.2h-3.1v-14.2q0-3.4-1.8-5.2-1.8-1.8-4.4-1.8-2.5 0-4.3 1.8-1.8 1.8-1.8 4.8z"/>
			<path id="&lt;Compound Path&gt;" fill-rule="evenodd" class="s0" d="m230.9 137q4.4 0 7.2 3.1 2.8 3.2 2.8 9.2 0 6.1-2.8 9.2-2.8 3.1-7.2 3.1-4.4 0-6.9-3.6v11.7h-3v-32.3h2.6l0.4 3.3q2.5-3.7 6.9-3.7zm-4.9 19.6q1.8 2 4.9 2 3.1 0 5-2.3 2-2.2 2-7 0-4.8-2-7-1.9-2.2-5-2.2-3.1 0-4.9 1.9-1.8 1.9-2 6.2v2.3q0.2 4.2 2 6.1z"/>
			<path id="&lt;Compound Path&gt;" class="s0" d="m251.7 128.9v32.3h-3.1v-32.3z"/>
			<path id="&lt;Compound Path&gt;" class="s0" d="m261 132.7v-3.1h3.1v3.1zm3.1 4.6v23.9h-3.1v-23.9z"/>
			<path id="&lt;Compound Path&gt;" class="s0" d="m276.4 140v21.2h-3.1v-26.2q0-3.9 2.3-6.2 2.3-2.3 6.2-2.3v2.4q-2.6 0-4 1.7-1.4 1.8-1.4 4.4v2.3h5.4v2.7z"/>
			<path id="&lt;Compound Path&gt;" class="s0" d="m292.3 160.7l-8.5-23.4h3.3l6.9 19.4 6.9-19.4h3.2l-10.4 28.8q-0.7 1.8-2.1 3.2-2.5 2.6-6.7 2.3v-2.7q2.7 0 4.5-1.8 0.9-0.8 1.3-2z"/>
			<path id="&lt;Compound Path&gt;" class="s0" d="m309.5 132.7v-3.1h3.1v3.1zm3.1 4.6v23.9h-3.1v-23.9z"/>
			<path id="&lt;Compound Path&gt;" class="s0" d="m324.9 147v14.2h-3.1v-23.9h2.7l0.4 2.8q2.3-3.2 6.2-3.2 3.8 0 6.5 2.8 2.7 2.7 2.7 7.3v14.2h-3v-14.2q0-3.4-1.9-5.2-1.8-1.8-4.3-1.8-2.6 0-4.4 1.8-1.8 1.8-1.8 5.2z"/>
			<path id="&lt;Compound Path&gt;" fill-rule="evenodd" class="s0" d="m361.2 137.5q2.2-4.8 7.2-4.8 1.4 0 2.5 0.4l-1.1 2.8q-0.7-0.1-1.4-0.1-3.7 0-5.1 2.6 4.4 2.6 4.4 6.8 0 3.5-2.8 5.8-2.8 2.3-7.4 2.3-3.8 0.1-5.1 0.8-1.2 0.8-1.2 1.8 0 1 1.3 1.8 1.3 0.8 5.2 1.2 5.6 0.3 8.6 2.2 2.9 1.8 2.9 5.1 0 3.4-3 5.2-3 1.9-8.5 1.9-5.4 0-8.4-2-3-2-3-5.1 0-3.9 4.7-6.1-2.9-1.5-2.9-3.9 0-2.7 3.7-4.1-4.2-2.7-4.2-6.9 0-3.4 2.8-5.7 2.8-2.4 7.3-2.4 1.9 0 3.5 0.4zm-3.5 24.1q-4.3-0.7-6.4 0.9-2.1 1.6-2.1 3.7 0 2.1 2.3 3.3 2.3 1.2 6.2 1.2 4.3 0 6.4-1.2 2-1.2 2-3.3 0-2.1-2-3.1-2.1-1.1-6.4-1.5zm0-21.8q-3.5 0-5.3 1.7-1.9 1.6-1.9 3.7 0 2.2 1.9 3.8 1.9 1.7 5.3 1.7 3.3 0 5.1-1.7 1.8-1.6 1.8-3.8 0-2.1-1.8-3.7-1.8-1.7-5.1-1.7z"/>
			<path id="&lt;Compound Path&gt;" class="s0" d="m392.7 161.2v-32.3h3.1v29.6h14.6v2.7z"/>
			<path id="&lt;Compound Path&gt;" fill-rule="evenodd" class="s0" d="m415.9 150.8q0.2 3.6 1.8 5.5 2 2.2 5 2.2 3.1 0 5-2.2 0.2-0.2 0.3-0.3l2.7 1.4q-0.3 0.6-0.8 1-2.8 3.2-7.2 3.2-4.4 0-7.2-3.1-2.8-3.2-2.8-9.2 0-6.1 2.8-9.2 2.8-3.2 7.2-3.2 4.4 0 7.2 3.2 2.9 3.1 2.9 9.2 0 0.8-0.1 1.5zm13.7-2.8q-0.2-3.9-2-5.9-1.8-2.1-4.9-2.1-3.1 0-4.8 2.1-1.8 2-2 5.9z"/>
			<path id="&lt;Compound Path&gt;" fill-rule="evenodd" class="s0" d="m452.2 158.3q-2.4 3.1-6.3 3.3-3.7 0.2-6-1.8-2.3-2-2.3-5 0-3.1 2.4-5 2.4-2 6.7-2.5 2.8-0.5 4.1-1.3 1.2-0.8 1.2-2.4 0-1.6-1.5-2.7-1.6-1.1-4.2-1-2.6 0-4.5 1.2-0.4 0.3-0.7 0.5l-2.5-1.8q0.3-0.3 1-0.8 3.2-2.1 6.7-2.1 3.9 0 6.3 1.9 2.5 1.9 2.5 5.5v16.9h-2.3zm-0.2-9.8q-1.9 1.4-5.3 1.9-3.1 0.5-4.6 1.6-1.5 1-1.5 2.8 0 1.8 1.5 2.9 1.5 1.1 3.8 1 2.5-0.1 4.3-1.7 1.8-1.6 1.8-4.1z"/>
			<path id="&lt;Compound Path&gt;" class="s0" d="m466.6 146.6v14.6h-3v-23.9h2.6l0.4 3.6q2.4-4 6.6-4 1.3 0 2.1 0.4l-1.1 2.8q-0.7-0.1-1.4-0.1-2.9 0-4.5 1.8-1.7 1.8-1.7 4.8z"/>
			<path id="&lt;Compound Path&gt;" class="s0" d="m483.6 147v14.2h-3.1v-23.9h2.7l0.3 2.8q2.4-3.2 6.2-3.2 3.9 0 6.6 2.8 2.7 2.7 2.7 7.3v14.2h-3.1v-14.2q0-3.4-1.8-5.2-1.8-1.8-4.4-1.8-2.5 0-4.3 1.8-1.8 1.8-1.8 5.2z"/>
			<path id="&lt;Compound Path&gt;" class="s0" d="m507.5 132.7v-3.1h3v3.1zm3.1 4.6v23.9h-3.1v-23.9z"/>
			<path id="&lt;Compound Path&gt;" class="s0" d="m522.9 147v14.2h-3.1v-23.9h2.6l0.4 2.8q2.4-3.2 6.2-3.2 3.8 0 6.6 2.8 2.7 2.7 2.7 7.3v14.2h-3.1v-14.2q0-3.4-1.8-5.2-1.8-1.8-4.4-1.8-2.5 0-4.3 1.8-1.8 1.8-1.8 5.2z"/>
			<path id="&lt;Compound Path&gt;" fill-rule="evenodd" class="s0" d="m559.1 137.5q2.3-4.8 7.2-4.8 1.4 0 2.6 0.4l-1.1 2.8q-0.7-0.1-1.5-0.1-3.7 0-5 2.6 4.3 2.6 4.3 6.8 0 3.5-2.8 5.8-2.7 2.3-7.4 2.3-3.8 0.1-5 0.8-1.3 0.8-1.3 1.8 0 1 1.3 1.8 1.3 0.8 5.2 1.2 5.6 0.3 8.6 2.2 3 1.8 3 5.1-0.1 3.4-3 5.2-3 1.9-8.6 1.9-5.4 0-8.4-2-3-2-3-5.1 0-3.9 4.7-6.1-2.9-1.5-2.9-3.9 0-2.7 3.8-4.1-4.2-2.7-4.2-6.9 0-3.4 2.7-5.7 2.8-2.4 7.3-2.4 1.9 0 3.5 0.4zm-3.5 24.1q-4.3-0.7-6.4 0.9-2.1 1.6-2.1 3.7 0 2.1 2.3 3.3 2.3 1.2 6.2 1.2 4.3 0 6.4-1.2 2.1-1.2 2.1-3.3 0-2.1-2.1-3.1-2.1-1.1-6.4-1.5zm0-21.8q-3.4 0-5.3 1.7-1.8 1.6-1.8 3.7 0 2.2 1.9 3.8 1.8 1.7 5.2 1.7 3.3 0 5.1-1.7 1.8-1.6 1.8-3.8 0-2.1-1.8-3.7-1.8-1.7-5.1-1.7z"/>
			<path id="&lt;Compound Path&gt;" class="s0" d="m592.3 143.2q-3.2-2.6-3.2-6.3 0-3.6 2.8-6 2.8-2.4 7.6-2.4 4.5 0 8 2.6 1.5 1.2 2.5 2.7l-3 1q-0.7-0.8-1.6-1.5-2.7-1.7-5.9-1.7-3.5 0-5.4 1.5-1.9 1.5-1.9 3.8 0 2.4 2.3 4.1 1.9 1.4 5.6 2.1 5.7 0.9 8 2.7 3.4 2.7 3.4 6.6 0 4.1-3.2 6.7-3.2 2.5-8.4 2.5-4.8 0-8.1-2.7-1.9-1.5-2.7-3.3l3-0.9q0.6 1.1 1.9 2 2.4 1.8 5.9 1.8 3.9 0 6.2-1.6 2.3-1.6 2.3-4.5 0-2.6-2.5-4.4-2.1-1.5-7.1-2.1-4.3-0.9-6.5-2.7z"/>
			<path id="&lt;Compound Path&gt;" fill-rule="evenodd" class="s0" d="m634.8 140.1q2.8 3.1 2.8 9.2 0 6-2.8 9.2-2.8 3.1-7.2 3.1-4.4 0-7.2-3.1-2.8-3.2-2.8-9.2 0-6.1 2.8-9.2 2.8-3.2 7.2-3.2 4.4 0 7.2 3.2zm-7.2-0.1q-3.1 0-5 2.3-1.9 2.2-1.9 7 0 4.7 1.9 7 1.9 2.2 5 2.2 3.1 0 5-2.2 1.9-2.3 1.9-7 0-4.8-1.9-7-1.9-2.3-5-2.3z"/>
			<path id="&lt;Compound Path&gt;" class="s0" d="m648.4 128.9v32.3h-3.1v-32.3z"/>
			<path id="&lt;Compound Path&gt;" class="s0" d="m672.3 151.6v-14.3h3.1v23.9h-2.7l-0.4-2.8q-2.3 3.2-6.2 3.2-3.8 0-6.5-2.7-2.7-2.7-2.7-7.3v-14.3h3.1v14.3q0 3.3 1.8 5.1 1.8 1.8 4.3 1.8 2.6 0 4.4-1.8 1.8-1.8 1.8-5.1z"/>
			<path id="&lt;Compound Path&gt;" class="s0" d="m687.7 137.3h4.6v2.7h-4.6v15q0 2.1 0.9 3 0.9 0.9 2.2 0.9v2.3q-3 0-4.6-1.6-1.6-1.6-1.6-4.6v-15h-1.5v-2.7h1.5v-3.8l3.1-1.5z"/>
			<path id="&lt;Compound Path&gt;" class="s0" d="m699.2 132.7v-3.1h3.1v3.1zm3.1 4.6v23.9h-3.1v-23.9z"/>
			<path id="&lt;Compound Path&gt;" fill-rule="evenodd" class="s0" d="m727.2 140.1q2.8 3.1 2.8 9.2 0 6-2.8 9.2-2.8 3.1-7.2 3.1-4.4 0-7.2-3.1-2.8-3.2-2.8-9.2 0-6.1 2.8-9.2 2.8-3.2 7.2-3.2 4.4 0 7.2 3.2zm-7.2-0.1q-3.1 0-5 2.3-1.9 2.2-1.9 7 0 4.7 1.9 7 1.9 2.2 5 2.2 3.1 0 5-2.2 2-2.3 2-7 0-4.8-2-7-1.9-2.3-5-2.3z"/>
			<path id="&lt;Compound Path&gt;" class="s0" d="m740.8 147v14.2h-3.1v-23.9h2.7l0.4 2.8q2.3-3.2 6.2-3.2 3.8 0 6.5 2.8 2.7 2.7 2.7 7.3v14.2h-3.1v-14.2q0-3.4-1.8-5.2-1.8-1.8-4.3-1.8-2.6 0-4.4 1.8-1.8 1.8-1.8 5.2z"/>
			<path id="&lt;Compound Path&gt;" class="s0" d="m772.4 150.4q-4-0.4-6.2-2.2-2.2-1.7-2.2-4.6 0-2.9 2.5-4.8 2.4-1.9 6.3-1.9 3.9 0 6.4 2.1 0.8 0.6 1.3 1.3l-2.9 1.4q-0.2-0.3-0.6-0.6-1.6-1.2-4.2-1.2-2.6 0-4.2 1.1-1.5 1-1.5 2.6 0 1.5 1.2 2.4 1.3 0.9 4.1 1.3 4.3 0.5 6.7 2.4 2.4 1.9 2.4 5 0 3-2.5 4.9-2.5 2-6.6 2-4.2 0-7.3-2.5-1.2-1-1.9-2.2l2.7-1.4q0.5 0.8 1.4 1.4 1.8 1.7 5.1 1.7 2.9 0 4.5-1.1 1.5-1.1 1.5-2.8 0-1.8-1.5-2.8-1.5-1-4.5-1.5z"/>
		</g>
		<path id="&lt;Compound Path&gt;" fill-rule="evenodd" class="s0" d="m-1206.6-210.2l-11.8 27.2h-10.7l44.9-103.5h7.3l45.2 103.5h-10.8l-11.8-27.2zm48.5-8.6l-22.4-51.5-22.5 51.5z"/>
		<path id="&lt;Compound Path&gt;" class="s0" d="m-1073.6-202.8l9 4.1q-2 3.9-4.5 6.8-9 10.1-23.1 10.1-14 0-23-10.1-9-10-9-29.3 0-19.4 9-29.4 9-10.1 23-10.1 14.1 0 23.1 10 2.5 3 4.5 6.9l-9 4.1q-1.1-2.2-2.6-4-6.1-7.1-16-7.1-9.8 0-16 7.1-6.2 7.2-6.2 22.5 0 15.2 6.2 22.4 6.2 7.1 16 7.1 9.9 0 16-7.1 1.5-1.7 2.6-4z"/>
		<path id="&lt;Compound Path&gt;" fill-rule="evenodd" class="s0" d="m-1042.9-216.3q0.6 11.6 5.8 17.5 6.1 7.1 16 7.1 9.8 0 16-7.1 0.3-0.5 0.8-1l8.8 4.7q-1.2 1.7-2.6 3.2-9 10.1-23 10.1-14.1 0-23.1-10.1-9-10-9-29.3 0-19.4 9-29.4 9-10.1 23.1-10.1 14 0 23 10.1 9 10 9 29.4 0 2.5-0.1 4.9zm43.8-8.9q-0.8-12.5-6.5-19.1-5.7-6.5-15.5-6.5-9.9 0-15.5 6.5-5.7 6.6-6.3 19.1z"/>
		<path id="&lt;Compound Path&gt;" class="s0" d="m-962.5-286.5v103.5h-9.9v-103.5z"/>
		<path id="&lt;Compound Path&gt;" fill-rule="evenodd" class="s0" d="m-888-250.6q9 10 9 29.4 0 19.3-9 29.3-9 10.1-23.1 10.1-14 0-23-10.1-9-10-9-29.3 0-19.4 9-29.4 9-10.1 23-10.1 14.1 0 23.1 10.1zm-23.1-0.2q-9.8 0-16 7.1-6.1 7.2-6.1 22.5 0 15.2 6.1 22.4 6.2 7.1 16 7.1 9.9 0 16.1-7.1 6.1-7.2 6.1-22.4 0-15.3-6.1-22.5-6.2-7.1-16.1-7.1z"/>
		<path id="&lt;Compound Path&gt;" class="s0" d="m-849.9-259.4h14.8v8.6h-14.8v48q0 6.6 2.9 9.5 2.9 2.9 7 2.9v7.4q-9.4-0.1-14.5-5.2-5.2-5.2-5.2-14.6v-48h-4.9v-8.6h4.9v-12.3l9.8-4.9z"/>
		<g id="&lt;Group&gt;">
			<path id="&lt;Path&gt;" class="s1" d="m-1341.7-179.6l-16.2-22.2 14.3-20.3 15.9 22.2z"/>
			<path id="&lt;Path&gt;" class="s2" d="m-1327.7-199.9l-16.1-22.1 14.3-20.3 16 21.7z"/>
			<path id="&lt;Path&gt;" class="s3" d="m-1313.6-220.3l-15.9-22 15.5-23.3 16.2 22.3z"/>
			<path id="&lt;Path&gt;" class="s4" d="m-1297.6-197.3l-16.1-23.2 16.1-23.2 16 24z"/>
			<path id="&lt;Path&gt;" class="s5" d="m-1281.5-219.2l-16.1-24.2 16.1-22.3 16.1 24z"/>
			<path id="&lt;Path&gt;" class="s6" d="m-1268.6-200.5l-13.2-19.2 16.4-22 12.9 18.8z"/>
			<path id="&lt;Path&gt;" class="s7" d="m-1254.3-180.2l-14.2-20.5 16-22.2 14.3 20.6z"/>
			<path id="&lt;Path&gt;" class="s8" d="m-1297.7-243.2l-16.3-22.4 16.1-22.8 16.4 22.7z"/>
		</g>
		<text id="LMS
" style="transform: matrix(2,0,0,2,-820.034,-193.266)" >
			<tspan x="0" y="0" class="t9">LMS
</tspan>
		</text>
		<text id="Simplifying Learning Solutions
" style="transform: matrix(2,0,0,2,-1227.244,-129.049)" >
			<tspan x="0" y="0" class="t10">Simplifying Learning Solutions
</tspan>
		</text>
	</g>
</svg>