<svg xmlns="http://www.w3.org/2000/svg" viewBox="0 0 1212.45 321.64"><defs><style>.cls-1{fill:#16296f;}.cls-2{fill:#162971;}.cls-3{fill:#162a70;}.cls-13,.cls-4{fill:#162a6f;}.cls-5{fill:#3c2372;}.cls-6{fill:#6658a5;}.cls-7{fill:#fed403;}.cls-8{fill:#f05922;}.cls-9{fill:#e81a34;}.cls-10{fill:#f5841f;}.cls-11{fill:#018fd4;}.cls-12{fill:#0068ae;}.cls-13{font-size:46.6px;font-family:Roboto-Medium, Roboto;font-weight:500;}.cls-14{fill:none;stroke:#162971;stroke-miterlimit:10;stroke-width:3px;}</style></defs><g id="Layer_2" data-name="Layer 2"><g id="Layer_1-2" data-name="Layer 1"><path class="cls-1" d="M524.92,114.62A66.63,66.63,0,0,1,539.2,85.5a66,66,0,0,1,27.65-20.2c11-4.21,22-6.57,33.5-5.25,14.94,1.72,28.64,6.51,40.37,16.84,6.16,5.42,10.25,12,14.95,18.32,1.85,2.48,1.66,4-1.37,5.26q-7.57,3-15,6.44a2.6,2.6,0,0,1-3.76-1.22c-1.29-2.41-3.44-4-5.09-6.06-12.56-15.58-29.33-19-47.82-15.59-8.81,1.61-16.27,6.57-22.73,13.17C548.66,108.69,545.6,122.89,544.8,138a204.49,204.49,0,0,0,.29,28.87c1.2,13.36,4.63,26.18,14.46,36,12.37,12.36,27.57,16.69,44.74,13.34,13.17-2.58,23.15-10.07,30.53-21.09,1.35-2,2.92-2.65,5-1.76,4.73,2,9.48,3.89,14.1,6.08,2.82,1.34,3.85,3,1.27,6.12-4.68,5.69-8.42,11.9-14.16,17-9.08,8.08-19.1,14-30.75,16-14.48,2.5-29.29,2.7-43.2-3.22-8.31-3.54-16.31-8-22.36-15A67.8,67.8,0,0,1,525.89,189c-5.87-20.72-5.18-41.78-3.32-62.85A57,57,0,0,1,524.92,114.62Z"/><path class="cls-2" d="M1148.09,143.88c0,18.42-.14,36.85.05,55.27a20.47,20.47,0,0,0,17.91,20c3.33.39,4.33,1.69,4.08,4.7-.11,1.32,0,2.66,0,4,0,10.53-.13,11.18-10.36,9.09-14.23-2.91-25.67-10-31.34-24.43a64.19,64.19,0,0,1-4.2-24.21c.12-33.19,0-66.39.11-99.59,0-4.38-.92-6.69-5.78-6-3.9.55-5.5-1.4-5.21-5.22.14-1.82,0-3.65,0-5.48,0-7.84,0-8,7.88-8.86,2.87-.33,3-2,3-4.12,0-6.81.07-13.62,0-20.42,0-2.65.82-4,3.55-5,4.89-1.93,9.36-4.87,14.13-7.13,5.42-2.57,5.86-2.24,5.87,3.54,0,9.47.09,18.93-.07,28.39-.06,3.55.89,5,4.83,4.85,7.63-.35,15.3,0,23-.18,3.9-.09,5.78,1.08,5.7,5.38-.34,17,2.25,14-14.09,14.3-4.66.08-9.33.24-14,0-4.2-.27-5.48,1.33-5.45,5.44.17,18.59.08,37.18.08,55.77Z"/><path class="cls-3" d="M890.3,119.39c0,37.35-.1,74.7.12,112,0,4.93-1.47,6.44-6.19,6a70.25,70.25,0,0,0-12,0c-4.55.38-5.56-1.53-5.54-5.76.16-29,.08-58.1.07-87.15V8.08c0-6.92,0-6.91,7-6.9,3.66,0,7.34.2,11-.06,4.35-.3,5.68,1.36,5.67,5.73-.16,37.52-.09,75-.09,112.54Z"/><path class="cls-4" d="M508.57,232.93c-5.67-12.62-11.44-25.19-17.1-37.81-1.41-3.15-2.06-6.71-3.84-9.61-5.81-9.47-9.29-20-13.71-30.09-5.42-12.31-11-24.61-16.06-37.13-6.25-15.54-14-30.48-20.27-46-4.79-11.93-10.94-23.22-15.24-35.38-3.67-10.35-8.77-20.2-13.46-30.17-1-2.22-1.72-5.33-5.11-5.42-4-.11-8,0-12,0-1.79,0-2.48,1.15-3.14,2.66C383.31,16,377.8,28,372.49,40.05c-5.7,13-10.82,26.25-17,39-6.25,12.94-11.42,26.34-17.28,39.43-5.64,12.61-10.8,25.53-16.48,38.13C315,171.65,309,187,302,202c-4.78,10.13-8.8,20.61-13.44,30.81-1.89,4.17-.33,4.86,3.42,4.69a93.74,93.74,0,0,1,12,0c5.31.42,8.3-.76,10.58-6.56,6.65-16.83,14.76-33.08,21.55-49.86,2-4.93,4.45-5.79,9.07-5.73,17.63.22,35.27.09,52.9.09,17.31,0,34.61.19,51.91-.1,5.34-.08,8.21.8,10.51,6.57,7.12,17.86,15.76,35.1,22.7,53.06.73,1.9,2.08,2.44,3.86,2.45,6.33,0,12.65-.07,19,0C509.73,237.48,509.7,235.44,508.57,232.93ZM444,155.67c-15.47-.12-30.94,0-46.41,0v0q-22.2,0-44.41,0c-5.88,0-6.52-.63-3.77-5.77,6.39-11.92,11.28-24.53,16.59-36.91,5.08-11.8,10.38-23.51,15.45-35.32,4.42-10.27,9-20.5,13.24-30.85.8-1.94,1.71-4.63,3.81-4.59s2.22,2.92,3,4.72c6.77,15.39,14.13,30.55,20.29,46.18,5.52,14,12.67,27.2,17.66,41.41,2,5.65,5.23,11,7.69,16.58C448.7,154.64,447.76,155.7,444,155.67Z"/><path class="cls-3" d="M829.34,138.26c-.74-18.69-5.71-35.9-17.07-51.23-10.08-13.61-23.67-21.41-39.61-25.35C759.74,58.49,747,59.36,734,63.54c-23.35,7.52-37,23.87-45.48,45.7-3.51,9.07-4.46,18.71-5.14,28.27-1.6,22.52-.62,44.91,10.47,65.25,12.73,23.33,32.47,36.32,59.62,37.21,24.6.8,44.56-7.92,59.43-27.83,2-2.72,1.18-3.48-1.14-4.73-4.64-2.52-9.72-4.2-14-7.46-1.88-1.44-3.24-.56-4.72.92-8,8-17,14-28.51,15.8-17.64,2.7-32.83-2.61-44.44-15.66-8.63-9.69-12.11-22.11-13.27-35.08-.32-3.62.88-4.48,4.34-4.46,19,.15,37.93.07,56.9.07v0c18.8,0,37.6-.09,56.4.07,3.85,0,5-1.06,5.3-5C830.31,150.44,829.58,144.37,829.34,138.26Zm-27.64,2.55c-7.63-.33-15.28-.1-22.93-.11H756.34c-14.79,0-29.58-.13-44.37.08-4.23.06-5.53-1.21-5.06-5.43,1.12-10.28,3.55-20.19,8.56-29.2,9.31-16.73,25.61-24.38,44.33-23.32a46.89,46.89,0,0,1,28,11.09c5.05,4.17,8,9.76,11.08,15.54,4.35,8.27,6,17,7.39,26C806.83,139.25,806,141,801.7,140.81Z"/><path class="cls-4" d="M1078.74,123.37c-2.9-18.17-10.47-33.34-24-45.9a64.45,64.45,0,0,0-39.22-17.23c-27.23-2.27-49.69,7-66,30.15-7,10-9.88,21.16-13.09,32.32s-2.42,23-2.14,34.64c.46,19,4.89,36.61,15.61,52.79a66.82,66.82,0,0,0,31.4,25.38c16.38,6.66,33.84,6.49,50.3,1,18.74-6.21,32.27-19.6,40.69-37.5,7.28-15.47,8.33-32.16,8.26-50.56C1079.9,141.2,1080.17,132.32,1078.74,123.37Zm-27,65.66a43.23,43.23,0,0,1-12.94,17.33A48.35,48.35,0,0,1,1002.56,217a45.43,45.43,0,0,1-31.73-17.17c-9.55-11.72-11.71-25.87-13.51-40.12a93.66,93.66,0,0,1,1.27-30.22c2.65-13.12,6.74-26,17.56-35.21,10-8.49,21.65-12.07,34.9-11.46a45.43,45.43,0,0,1,26.44,10c8,6.29,14,14.59,16.56,24.67a130.17,130.17,0,0,1,4,33C1057.86,163.69,1056.71,176.83,1051.69,189Z"/><polygon class="cls-5" points="263.94 189.97 228.87 238.97 196.78 193.23 232.26 143.85 263.94 189.97"/><polygon class="cls-6" points="204.15 102.92 232.26 143.85 196.78 193.23 168.21 152.53 204.12 102.92 204.15 102.92"/><polygon class="cls-7" points="204.15 102.9 204.15 102.92 204.12 102.92 166.87 48.67 204.15 102.9"/><polygon class="cls-8" points="166.87 48.67 204.12 102.92 168.21 152.53 131.77 100.59 166.87 48.67"/><polygon class="cls-9" points="131.77 100.59 168.21 152.53 133.64 200.22 97.6 151.09 131.77 100.59"/><polygon class="cls-7" points="133.44 0 166.87 48.67 131.77 100.59 97.38 51.59 133.44 0"/><polygon class="cls-10" points="97.38 51.59 131.77 100.59 97.6 151.09 61.87 102.39 97.38 51.59"/><polygon class="cls-11" points="97.6 151.09 66.99 196.37 29.93 148.03 61.87 102.39 97.6 151.09"/><polygon class="cls-12" points="66.99 196.37 36.8 241.02 0 190.85 29.93 148.03 66.99 196.37"/><text class="cls-13" transform="translate(268.39 309.01)">Accelerating Organizational Transformation</text><circle class="cls-14" cx="1194.99" cy="18.77" r="15.96"/><path class="cls-3" d="M1200.28,19.07c2,.66,2.28,2.1,2.27,3.73v5.26h-3.86c0-1.24,0-2.45,0-3.65,0-3.24-.4-3.71-3.62-3.71h-3.56V28h-3.82V9.29a4,4,0,0,1,.59-.08c3.07,0,6.14,0,9.22,0a5.41,5.41,0,0,1,5.41,6.83A4.43,4.43,0,0,1,1200.28,19.07Zm-8.75-1.53h5a5.24,5.24,0,0,0,1-.11,2.23,2.23,0,0,0,1.89-2.32c0-1.33-.58-2.41-1.74-2.49-2-.14-4,0-6.09,0Z"/></g></g></svg>